<svg xmlns="http://www.w3.org/2000/svg" width="1600" height="900" viewBox="0 0 1600 900" role="img" aria-label="BilimNazoratchi background">
  <defs>
    <linearGradient id="g0" x1="0" y1="0" x2="1" y2="1">
      <stop offset="0" stop-color="#f8fbff"/>
      <stop offset="0.55" stop-color="#f3f7fb"/>
      <stop offset="1" stop-color="#eef5ff"/>
    </linearGradient>
    <radialGradient id="g1" cx="25%" cy="18%" r="70%">
      <stop offset="0" stop-color="#00c3e8" stop-opacity="0.22"/>
      <stop offset="0.55" stop-color="#00c3e8" stop-opacity="0.05"/>
      <stop offset="1" stop-color="#00c3e8" stop-opacity="0"/>
    </radialGradient>
    <radialGradient id="g2" cx="82%" cy="62%" r="70%">
      <stop offset="0" stop-color="#0087c0" stop-opacity="0.20"/>
      <stop offset="0.55" stop-color="#0087c0" stop-opacity="0.05"/>
      <stop offset="1" stop-color="#0087c0" stop-opacity="0"/>
    </radialGradient>
    <pattern id="p-grid" width="80" height="80" patternUnits="userSpaceOnUse">
      <path d="M80 0H0V80" fill="none" stroke="#0ea5e9" stroke-opacity="0.06" stroke-width="1"/>
      <path d="M0 0H80M0 0V80" fill="none" stroke="#0f172a" stroke-opacity="0.03" stroke-width="1"/>
    </pattern>
    <filter id="blur1" x="-20%" y="-20%" width="140%" height="140%">
      <feGaussianBlur stdDeviation="18"/>
    </filter>
  </defs>

  <rect width="1600" height="900" fill="url(#g0)"/>
  <rect width="1600" height="900" fill="url(#p-grid)"/>

  <circle cx="420" cy="160" r="360" fill="url(#g1)"/>
  <circle cx="1250" cy="620" r="420" fill="url(#g2)"/>

  <g fill="none" stroke="#0087c0" stroke-opacity="0.18">
    <path d="M-60 610C160 520 360 520 560 610S960 720 1180 630 1500 520 1700 610" stroke-width="2"/>
    <path d="M-60 660C160 570 360 570 560 660S960 770 1180 680 1500 570 1700 660" stroke-width="1.5" stroke-opacity="0.12"/>
  </g>

  <g opacity="0.20" filter="url(#blur1)">
    <path d="M1020 120c210 40 340 170 360 300-30 40-120 130-290 150-190 20-320-70-380-150 10-130 120-260 310-300z" fill="#00c3e8"/>
  </g>

  <g opacity="0.16">
    <path d="M215 740l120-210 80 75 160-210 140 120" fill="none" stroke="#0056b3" stroke-width="6" stroke-linecap="round" stroke-linejoin="round"/>
    <circle cx="215" cy="740" r="10" fill="#0056b3"/>
    <circle cx="335" cy="530" r="10" fill="#0056b3"/>
    <circle cx="415" cy="605" r="10" fill="#0056b3"/>
    <circle cx="575" cy="395" r="10" fill="#0056b3"/>
    <circle cx="715" cy="515" r="10" fill="#0056b3"/>
  </g>
</svg>

